ply
format ascii 1.0
element vertex 1341
property float x
property float y
property float z
property uchar red
property uchar green
property uchar blue
end_header
-0.33069 -0.0181717 0.201858 0 255 0
0.547849 -0.168931 -0.0331633 0 255 0
-1.50691 -0.332384 0.551461 0 255 0
-1.43101 -0.78301 0.232788 0 255 0
-0.646993 -0.0779207 -0.0273969 0 255 0
0.894786 -0.197956 -0.316582 0 255 0
1.21749 -0.250606 -0.409234 0 255 0
0.815221 -0.312219 -0.578209 0 255 0
-0.209717 -0.393623 0.215574 0 255 0
2.6313 -2.42934 6.12894 144 136 82
2.4275 -2.35833 6.10325 128 70 40
2.60212 -2.21832 6.14457 98 78 52
2.28325 -2.15525 6.19641 156 96 72
2.2276 -2.22007 6.43595 128 112 77
2.09441 -2.36302 7.03054 154 143 104
1.96991 -2.32095 6.93104 121 106 77
1.59526 -2.04751 6.5395 124 109 63
1.65014 -1.96608 6.4072 126 104 74
1.6511 -1.81436 6.09486 114 81 52
1.59901 -1.88927 6.49565 108 76 38
2.56584 -1.61802 5.59232 80 52 32
1.9761 -1.68668 5.90046 121 31 18
1.98835 -1.66012 5.79149 112 23 8
1.6293 -1.83922 6.45767 106 86 62
2.15442 -1.61821 5.66063 116 68 40
3.02065 -1.6808 5.97602 117 80 55
2.69295 -1.56755 5.63374 128 92 74
1.80443 -1.65168 5.97008 118 73 48
-0.752963 -1.9808 7.17749 146 137 93
2.1737 -1.56107 5.719 142 110 94
-0.454678 -1.89447 6.89196 84 76 37
1.98363 -1.57775 5.7772 140 106 91
1.92585 -1.57802 5.82249 137 98 78
1.85558 -1.56691 5.88404 128 90 68
2.41538 -1.51954 5.74137 162 143 138
1.61575 -1.64374 6.24134 137 118 97
-0.581908 -1.77825 6.76202 42 22 10
1.72399 -1.59554 6.11742 132 113 100
1.68364 -1.75672 6.74109 121 116 85
1.94567 -1.51192 5.85603 139 108 95
1.89409 -1.51873 5.89341 148 108 92
2.34141 -1.46581 5.65509 122 104 96
-2.07373 -1.68383 6.57055 138 127 84
-2.04039 -1.68644 6.59492 156 146 101
-0.901296 -1.78847 6.99527 128 119 77
-0.78978 -1.73412 6.81969 82 44 30
1.78786 -1.52237 6.07611 104 77 66
1.7312 -1.60824 6.43739 127 108 93
-0.705578 -1.68895 6.75797 148 94 72
2.50452 -1.41224 5.72949 176 156 152
-0.593582 -1.68267 6.77197 56 23 13
-2.02086 -1.56921 6.34318 66 38 20
1.73487 -1.52743 6.21246 120 98 87
1.9751 -1.44338 5.88302 142 54 50
1.8386 -1.46813 6.02682 112 34 26
-2.26119 -1.57055 6.3712 134 122 80
2.4482 -1.40536 5.89428 158 144 138
-0.864174 -1.66072 6.90698 111 65 44
1.92242 -1.41164 5.93715 110 40 32
2.78251 -1.37462 5.80073 140 129 118
1.87609 -1.41761 5.98265 122 67 58
2.59284 -1.37041 5.83455 140 122 114
-2.12681 -1.48658 6.26593 96 60 35
1.8019 -1.44256 6.10389 108 73 49
-0.559452 -1.59461 6.77355 42 13 6
-0.339525 -1.61189 6.89641 28 10 0
2.2434 -1.35271 5.78866 218 198 190
-1.95053 -1.48922 6.36186 63 40 26
-1.88617 -1.51416 6.44527 69 40 24
2.3378 -1.34012 5.79155 92 73 65
-0.737625 -1.57403 6.76173 110 54 37
1.71899 -1.43342 6.23102 116 84 56
-2.19596 -1.45287 6.29042 100 62 38
1.90944 -1.37328 5.96771 149 115 97
2.18959 -1.34367 5.84805 116 90 78
-0.82458 -1.56531 6.78824 104 42 22
1.79348 -1.40337 6.15654 137 102 79
-0.372124 -1.55685 6.83154 37 15 6
2.62105 -1.30945 5.87152 162 144 137
1.83437 -1.37129 6.09715 132 94 73
2.2931 -1.29385 5.77085 126 104 96
-1.93929 -1.40174 6.29978 74 33 18
-0.960894 -1.5803 7.08198 84 60 30
1.3517 -1.99924 8.95777 128 126 80
-2.09651 -1.38233 6.26068 118 76 59
-2.23257 -1.38555 6.26727 89 52 33
-0.476316 -1.49122 6.8279 34 10 3
2.77042 -1.27999 5.87929 124 106 94
-0.67248 -1.47362 6.73634 192 119 96
2.30172 -1.25931 5.83 136 111 102
2.53245 -1.25332 5.8234 150 127 118
-0.224792 -1.52207 7.09909 100 92 52
-1.83292 -1.38165 6.4419 74 31 16
-0.479451 -1.45948 6.82911 32 8 1
1.99077 -1.26374 5.97026 126 86 66
2.24201 -1.24523 5.91695 138 98 80
2.95464 -1.24302 5.93125 127 101 68
-2.13713 -1.3347 6.31712 94 56 40
-0.724005 -1.41941 6.73929 186 124 101
-2.20394 -1.3105 6.25851 67 40 28
-0.484183 -1.41707 6.80604 36 12 5
-1.90679 -1.31377 6.27348 150 96 80
-2.27136 -1.286 6.31713 94 55 34
-1.86146 -1.2896 6.35281 107 46 28
-2.45444 -1.32334 6.49903 140 132 83
-2.01417 -1.2685 6.30215 68 24 14
-2.15695 -1.24915 6.32388 91 55 36
-2.45887 -1.28978 6.51948 126 112 76
2.32958 -1.21461 6.2971 143 112 99
-1.91783 -1.22809 6.32489 52 4 0
-2.34465 -1.25543 6.45699 76 38 20
-0.553415 -1.32958 6.92183 48 14 6
1.94532 -1.34045 7.04268 131 109 64
2.13409 -1.32538 6.95913 133 110 66
-2.00238 -1.19335 6.33354 62 20 12
-2.14609 -1.16895 6.33081 89 56 42
-2.44397 -1.20436 6.53983 134 120 78
-0.404805 -1.29714 7.08561 109 61 47
2.88158 -1.24523 6.91401 58 22 10
2.27939 -1.19472 6.63339 113 92 78
-0.542902 -1.24451 6.92029 96 48 28
-0.20997 -1.26728 7.03435 148 128 96
2.52624 -1.16245 6.53619 110 96 84
3.09462 -1.24544 6.97379 139 116 71
2.0993 -1.22579 7.00257 172 146 112
2.36822 -1.10258 6.34677 155 110 97
2.24135 -1.17161 6.81649 110 112 68
-2.20136 -1.11946 6.47278 68 34 22
-2.41504 -1.12319 6.56955 114 102 68
2.27444 -1.12533 6.66996 112 106 90
-2.0049 -1.08603 6.40885 72 28 16
2.32046 -1.10222 6.60057 144 118 104
2.97406 -1.17267 6.93706 132 97 74
-0.10694 -1.16048 7.09582 86 74 32
2.49178 -1.03607 6.40031 108 55 33
-0.901284 -1.14637 7.03676 128 98 60
-1.69638 -1.08381 6.67799 78 38 10
2.26169 -1.06701 6.66854 96 96 79
-2.00662 -1.04006 6.52335 44 12 8
1.68829 -1.0567 6.65985 115 89 51
2.23617 -1.07253 6.80645 106 103 61
-0.750773 -1.08845 6.88411 160 113 82
3.04408 -1.08488 6.97407 132 124 86
-2.34527 -1.03855 6.60784 96 70 50
-0.152246 -1.0855 6.98751 144 123 98
-2.01252 -1.02531 6.60089 74 28 12
2.27482 -1.03103 6.72927 112 104 90
-1.62663 -1.01518 6.74461 98 62 34
-1.14532 -1.14796 7.62616 100 82 37
2.95701 -0.945419 6.4192 110 98 52
-1.19556 -1.13344 7.63212 102 88 46
1.79056 -0.976797 6.70998 140 110 94
2.51888 -0.922431 6.38367 84 29 8
-0.39247 -1.02 6.92488 65 21 10
-0.353831 -1.02099 6.96717 98 49 34
1.88246 -0.972726 6.72441 146 96 75
2.78965 -0.929704 6.45358 134 102 75
-1.95034 -0.963587 6.56344 128 72 44
-1.01036 -1.07348 7.32648 150 106 74
2.24946 -0.978887 6.75082 126 105 90
-2.23098 -0.947254 6.53115 78 37 25
-1.4682 -0.984275 6.70507 112 71 42
1.88646 -0.978121 6.84215 134 98 80
2.36203 -0.898346 6.28581 123 26 0
2.80886 -0.904009 6.34346 162 128 94
2.88435 -0.917306 6.42317 126 97 62
1.74474 -0.94513 6.65923 146 117 101
-2.4046 -0.934776 6.60389 150 134 103
-0.13908 -0.980072 6.93764 129 92 62
1.67967 -0.947887 6.81811 118 94 63
2.31052 -0.880125 6.4016 153 85 72
-1.80553 -0.92072 6.59114 126 78 57
-0.798625 -0.94784 6.87138 158 109 77
-0.737094 -0.938231 6.81649 162 112 85
1.88361 -0.906325 6.78049 148 102 78
2.33298 -0.841266 6.36825 55 14 4
-2.09435 -0.892893 6.64071 82 36 26
2.0507 -0.931994 6.98508 17 30 12
2.45109 -0.849989 6.50509 106 34 22
-1.33725 -1.01262 7.56055 98 78 38
-0.652753 -0.879375 6.65319 181 134 113
2.49712 -0.829107 6.41455 100 60 42
-2.35421 -0.862039 6.62047 112 82 72
-0.820506 -0.887302 6.84599 126 80 50
-0.35985 -0.901116 6.975 86 44 28
2.83437 -0.810983 6.38799 118 92 73
2.90292 -0.807335 6.43492 46 29 16
2.25673 -0.80852 6.4402 136 110 98
-2.1215 -0.819499 6.57532 61 28 22
-0.82193 -0.824142 6.63789 130 87 58
1.94316 -0.838352 6.8319 94 56 37
2.50092 -0.755442 6.39784 66 40 32
2.65762 -0.75841 6.42417 164 91 62
2.18996 -0.837325 7.10149 85 82 48
2.32163 -0.755095 6.49071 66 51 44
-2.41024 -0.770488 6.59494 110 86 58
1.9702 -0.793558 6.92741 82 48 30
2.52468 -0.722932 6.344 122 73 53
2.81677 -0.722007 6.5249 168 131 108
1.74433 -0.78405 7.01172 140 120 92
-0.714743 -0.746562 6.62043 156 112 88
-0.373546 -0.783263 7.01625 50 18 12
-0.192301 -0.786294 7.09337 137 112 90
2.27076 -0.707477 6.52214 110 83 69
1.80439 -0.744773 6.93096 69 28 14
1.91125 -0.745467 6.9325 45 10 0
2.36002 -0.688629 6.42019 103 97 100
2.42212 -0.663133 6.40067 38 34 41
-2.35154 -0.69887 6.65581 141 108 90
-1.7269 -0.677743 6.38544 111 65 40
-1.27897 -0.646531 6.27203 160 106 74
-1.76997 -0.645632 6.37286 145 99 76
-1.45028 -0.649104 6.2704 101 61 36
2.243 -0.645838 6.58267 163 115 96
2.35902 -0.628607 6.48495 96 83 84
2.54957 -0.631733 6.46936 128 86 78
-2.46116 -0.526532 5.28729 137 102 80
-2.06562 -0.651353 6.61024 80 34 18
-0.665582 -0.640444 6.64543 140 95 79
3.1426 -0.658989 7.06625 161 136 108
2.16168 -0.692786 7.44297 126 110 90
2.66463 -0.58797 6.47568 91 37 16
-1.47879 -0.593212 6.40817 103 58 32
-0.5376 -0.638618 6.91088 110 69 53
-0.951149 -0.579262 6.36929 98 48 34
1.73746 -0.629542 7.06703 210 180 156
2.38698 -0.566415 6.4105 100 64 56
2.82214 -0.583936 6.60075 134 105 82
-2.37738 -0.5996 6.66741 124 98 72
2.42892 -0.556681 6.37839 66 41 44
-1.54984 -0.561753 6.33485 84 40 16
2.00223 -0.623063 7.21187 94 72 46
-1.41321 -0.54825 6.26523 114 60 34
2.56162 -0.547146 6.46764 114 89 88
-0.377744 -0.627672 7.19567 130 89 70
-1.2607 -0.526151 6.18668 78 30 16
2.69294 -0.530259 6.5161 104 62 43
3.13942 -0.578123 7.08605 155 128 103
-2.35482 -0.561389 6.71096 156 132 106
2.28471 -0.528241 6.472 155 114 90
-1.58213 -0.527022 6.30282 98 54 26
2.20776 -0.515255 6.49483 104 54 30
-2.28245 -0.553869 6.74065 126 96 82
2.89558 -0.518278 6.76091 110 85 64
-0.84623 -0.529236 6.54071 121 70 54
2.46099 -0.496857 6.50227 96 70 60
2.00166 -0.562134 7.24682 96 70 41
-0.672126 -0.526975 6.7487 126 78 62
-1.70941 -0.488367 6.30654 104 58 40
2.57249 -0.473733 6.44647 136 92 70
2.31232 -0.479418 6.49188 144 102 82
2.44619 -0.463276 6.35543 149 97 80
-1.37238 -0.454002 6.21398 139 78 58
-0.716796 -0.485904 6.76484 126 80 61
-1.52754 -0.453435 6.36053 186 126 106
1.79493 -0.476823 7.20169 53 30 3
-2.26393 -0.464474 6.71964 133 104 82
2.60931 -0.422246 6.58957 94 46 25
2.27215 -0.412253 6.4755 247 219 200
-1.28609 -0.41526 6.20748 124 68 54
-0.60301 -0.468697 7.07136 164 118 102
-1.64926 -0.416064 6.27363 124 71 44
-1.59812 -0.403611 6.25797 124 72 48
-0.562926 -0.472597 7.26648 162 121 104
-1.04388 -0.411051 6.41247 82 41 24
1.89327 -0.411451 7.09051 54 34 20
2.08372 -0.37754 6.57003 166 108 80
1.81419 -0.398239 7.15873 109 74 48
2.13478 -0.403121 7.3492 88 66 38
2.20453 -0.358274 6.54475 173 128 99
-1.59117 -0.360954 6.31902 97 48 26
-0.905101 -0.4006 7.06572 160 109 86
2.60682 -0.353849 6.6503 104 68 50
2.8588 -0.345925 6.63523 104 84 61
2.31558 -0.342165 6.53551 170 144 124
-2.03158 -0.357442 7.02932 153 106 83
1.74876 -0.3717 7.29937 50 34 18
2.69727 -0.336569 6.74877 62 42 30
2.78013 -0.332291 6.71654 140 114 88
1.59377 -0.374714 7.38634 118 96 68
-2.46069 -0.275677 5.24948 157 143 143
2.15959 -0.308564 6.72989 90 38 16
-2.39233 -0.253344 5.25568 122 35 36
-2.07993 -0.279492 5.85731 161 118 96
-2.06048 -0.284395 5.99603 162 134 111
2.08968 -0.293139 6.71674 129 105 94
2.74274 -0.292852 6.76746 124 97 76
-1.18778 -0.326334 7.38336 92 67 50
2.386 -0.27487 6.577 63 43 31
2.21699 -0.267359 6.68756 112 81 62
1.70448 -0.291516 7.26212 44 24 4
-2.13837 -0.242316 5.84029 125 67 36
-1.70169 -0.273938 6.76328 122 74 52
2.66402 -0.260634 6.79065 84 64 46
2.78586 -0.251936 6.68711 77 50 28
2.88119 -0.258451 6.66766 77 51 32
1.82967 -0.274447 7.17872 117 78 56
1.91409 -0.271324 7.13638 106 67 45
2.13946 -0.253878 6.67543 100 80 70
2.44259 -0.233193 6.63926 128 102 89
3.3195 -0.244774 7.27533 129 90 58
-2.31142 -0.20199 5.72668 158 137 110
2.82139 -0.210497 6.77684 97 72 46
3.30935 -0.199241 7.08271 136 116 91
-2.07204 -0.184738 5.74086 144 56 32
2.47757 -0.186696 6.66049 120 80 55
-1.92897 -0.187303 5.91867 150 116 95
2.08526 -0.183958 6.71527 110 92 80
2.35764 -0.182565 6.66387 43 26 12
-2.24779 -0.1788 5.72983 158 126 80
2.59755 -0.178695 6.72101 116 84 64
-2.3611 -0.168974 5.58239 119 85 48
-0.718932 -0.205161 7.08315 174 122 100
-1.97278 -0.161773 5.8431 140 26 32
2.74385 -0.15426 6.79231 95 52 30
2.81632 -0.155766 6.72451 101 84 68
1.99958 -0.160433 6.9656 99 82 64
2.90335 -0.1516 6.72561 81 65 52
3.17801 -0.146309 7.09759 97 58 35
-1.00553 -0.149178 7.13615 160 108 86
2.32952 -0.134681 6.74757 105 73 53
1.58397 -0.139129 7.29772 118 88 57
3.28067 -0.120245 7.12217 121 85 55
2.15375 -0.1096 6.90416 116 90 76
-1.92273 -0.108114 5.87458 164 113 94
2.02036 -0.0961618 6.85885 122 101 82
-1.92543 -0.0882019 5.86734 170 126 102
2.27421 -0.0599044 6.86982 120 90 74
1.74557 -0.0581792 6.93736 173 137 124
-2.27522 -0.0522979 5.52754 130 62 23
-2.06517 -0.0583037 6.91029 157 110 85
-0.272024 -0.0549595 7.32052 157 109 90
1.57509 -0.0401818 7.51194 120 106 82
-1.80745 -0.0475269 6.83056 160 112 92
2.83859 -0.0129448 6.8692 138 112 97
2.32019 -0.0192341 6.7703 133 89 64
-2.07209 -0.0351454 5.78776 148 82 59
1.59952 -0.0180237 7.31926 124 94 75
-2.50882 -0.0184526 5.35383 68 0 2
-2.17122 -0.00472877 5.6814 157 128 90
1.75719 0.03906 6.91313 167 135 123
2.32857 0.0350593 6.58535 154 113 93
1.66159 0.0377095 7.01959 140 80 56
3.19596 0.0440736 6.9781 124 92 69
0.689989 0.0341751 6.39126 150 106 86
-1.87957 0.0353731 6.82876 166 118 98
1.60594 0.0658101 7.19746 115 90 75
1.63669 0.0771495 6.98156 152 94 80
2.51433 0.0873314 6.74766 122 82 62
-2.20357 0.0494397 5.70214 162 138 110
2.91783 0.102721 6.73155 126 98 76
-2.3227 0.0610048 5.49869 108 10 11
2.3463 0.116893 6.50664 121 80 60
3.23438 0.12486 7.00858 146 120 100
-2.48601 0.0681095 5.37032 98 6 8
3.17451 0.133728 6.97431 140 118 104
0.168483 0.102405 6.02563 110 38 29
-2.27513 0.0830176 5.59933 124 56 36
0.355025 0.108266 6.08032 90 40 26
1.73836 0.135357 6.96837 141 80 75
2.09433 0.134481 6.67069 131 83 58
0.22048 0.124965 5.9187 116 30 24
1.73042 0.178305 6.95726 170 121 118
2.69407 0.18637 6.63502 156 130 120
1.60744 0.209452 7.67053 110 93 70
1.60889 0.191488 7.12784 78 48 36
1.81927 0.190361 6.85808 156 128 122
2.78735 0.19055 6.62282 152 112 98
-2.48287 0.125378 5.40455 90 58 60
3.08101 0.203861 6.87056 146 108 88
1.77101 0.20806 6.91621 140 110 106
0.341388 0.186419 6.06216 110 22 16
1.61086 0.255436 7.65128 100 80 58
1.6518 0.236131 7.11684 92 60 52
1.98028 0.224179 6.7313 164 129 118
2.27442 0.216511 6.64077 158 118 104
-1.07989 0.220644 7.21046 110 56 36
-2.39489 0.164027 5.53403 76 54 56
0.124349 0.202178 5.91816 34 10 5
2.96924 0.251685 6.75889 158 135 124
2.08065 0.251676 6.72838 166 132 120
2.68818 0.2604 6.6357 151 123 110
2.88063 0.266914 6.68677 144 111 102
-2.48486 0.191857 5.44544 124 116 122
-1.28626 0.254933 6.92654 110 61 38
2.38026 0.274296 6.62342 165 136 124
3.02979 0.302521 6.78095 98 67 49
1.68516 0.319275 7.08752 76 63 50
1.82889 0.303261 6.86614 146 120 116
2.45189 0.294149 6.59822 168 138 126
2.73933 0.299766 6.6354 140 106 92
-1.44385 0.293166 6.89184 114 64 41
0.10997 0.255697 5.96854 90 16 10
-2.34988 0.306546 7.11472 140 94 69
2.66226 0.315152 6.65833 180 156 148
-2.58922 0.232865 5.39333 80 66 66
-0.727468 0.3288 7.12581 138 82 52
1.78532 0.335718 6.92149 124 111 100
2.87254 0.328803 6.67903 109 64 52
-2.44131 0.243391 5.51739 102 94 100
-0.757256 0.338298 7.0441 129 77 46
-1.53404 0.325298 6.80806 145 96 74
1.71273 0.359516 7.12776 38 17 8
2.16652 0.361192 7.17855 212 192 184
2.1674 0.346076 6.6862 154 119 105
-1.04928 0.365761 7.17132 152 100 77
-1.15222 0.375247 7.17463 71 35 28
0.729348 0.31383 5.90678 157 112 100
2.76188 0.376106 6.70219 94 67 55
2.82704 0.381776 6.69629 124 95 81
-2.51086 0.279114 5.45936 100 94 108
2.92687 0.398488 6.77458 159 134 122
-0.0491239 0.347251 6.07233 142 94 86
0.286916 0.334639 5.87661 90 16 8
2.08363 0.404919 6.74078 186 148 140
2.3797 0.394703 6.65523 154 136 128
-0.00291143 0.345585 6.03606 132 42 36
2.56163 0.408501 6.65924 140 50 42
1.67227 0.436157 7.17071 95 62 43
1.94434 0.420287 6.83998 120 88 82
-2.61405 0.306617 5.4547 82 66 67
0.385508 0.366003 5.80409 46 24 15
2.23125 0.434477 6.64376 128 32 20
-2.38465 0.431815 7.05399 126 98 72
-0.863055 0.444297 7.02792 122 74 46
0.948457 0.410983 6.30426 108 93 77
2.34269 0.449802 6.62767 116 40 37
-2.36497 0.376228 5.93303 115 38 36
-2.23534 0.446753 6.91033 114 71 40
0.258604 0.387089 5.83108 120 24 20
-2.4882 0.358577 5.54962 102 83 86
0.314127 0.395686 5.8251 63 48 34
-2.15327 0.463106 6.91414 142 92 66
-2.09025 0.456925 6.84172 147 94 66
0.448833 0.400921 5.83012 60 44 30
2.7105 0.479379 6.72347 74 56 50
-0.204396 0.441197 6.29634 106 78 65
2.78303 0.507485 6.76724 140 118 100
-2.5179 0.368417 5.47851 84 60 66
2.10295 0.505383 6.75653 128 100 95
-0.0344425 0.485365 6.5038 139 111 104
2.23895 0.507126 6.69271 122 65 56
0.98177 0.47125 6.32524 133 116 104
-2.31981 0.408275 5.71864 102 46 46
0.249346 0.452807 5.95187 106 14 12
2.33977 0.516652 6.65986 128 56 46
-0.0528843 0.504641 6.41284 110 75 64
0.131698 0.471615 6.04302 130 36 32
0.378767 0.456783 5.86848 46 32 16
0.580417 0.471257 5.96595 127 47 42
2.18238 0.545429 6.74963 100 78 73
2.68013 0.561709 6.79565 151 124 113
-1.63769 0.540023 6.88654 75 38 24
-2.24389 0.543608 6.87761 110 74 44
0.624523 0.494207 5.98235 126 23 26
2.31836 0.579142 6.70887 130 106 101
-2.21969 0.571053 6.89802 132 90 68
0.948409 0.545009 6.31849 106 86 76
-2.48867 0.46369 5.5888 27 16 26
-1.34091 0.594265 6.94718 121 86 76
-1.42535 0.609542 6.96082 136 104 93
-2.274 0.496854 5.80433 145 106 87
-2.59753 0.478394 5.49096 110 32 34
0.263486 0.551647 5.94481 96 82 80
-2.34828 0.537621 5.77751 131 72 38
-2.38255 0.545574 5.73588 120 54 16
0.072109 0.575444 5.96682 150 42 38
0.407558 0.610603 5.98455 147 46 44
0.513171 0.619456 5.98308 116 96 92
-2.67123 0.568083 5.51124 91 40 43
-2.5494 0.607686 5.8286 116 37 28
0.234565 0.635608 5.92664 148 90 88
0.438915 0.649006 5.995 140 49 46
0.573764 0.66747 6.00896 140 76 70
-2.59095 0.624407 5.74896 129 54 41
-2.58794 0.627561 5.58049 130 53 21
-2.63028 0.642701 5.58718 134 70 26
-2.58446 0.709789 5.9476 96 44 28
0.139727 0.753936 6.08689 125 50 46
-2.40808 0.724596 5.96441 134 57 40
0.549386 0.769046 6.09385 126 50 39
-2.48179 0.731388 5.88017 140 36 16
-2.60761 0.739263 5.83418 119 80 56
0.710926 0.807089 6.14991 164 110 98
-2.61445 0.773991 5.85649 101 14 8
-2.56383 0.780325 5.91749 131 71 64
0.12989 0.860675 6.31079 232 200 196
0.201394 0.870125 6.33418 162 146 146
0.066246 0.88125 6.3301 87 57 48
-2.60847 0.786559 5.74605 122 40 20
0.263983 0.897557 6.32801 70 36 36
-2.31938 0.837475 6.05707 118 52 42
0.110486 0.910755 6.3049 110 79 72
-2.52103 0.865942 6.00476 122 32 14
-2.73842 0.836756 5.78559 164 60 47
-2.47977 0.874919 5.99844 136 54 22
-2.43918 0.87286 5.9814 130 36 14
0.3633 0.969244 6.29792 140 110 107
0.129894 1.00638 6.30962 122 94 90
0.266984 1.00064 6.24743 116 86 82
-2.75223 0.908636 5.80262 160 50 34
-2.68404 0.919203 5.85089 143 62 29
-2.61408 0.943839 5.88312 108 20 5
-2.07612 1.00395 6.13942 158 136 124
-2.64938 0.970875 5.83278 124 23 6
-2.18687 1.05934 6.02657 132 100 84
-2.87575 1.08721 6.05821 160 67 61
-2.36898 1.1417 5.86417 135 80 78
-2.56911 1.23389 5.73508 152 87 86
2.44805 -2.301 6.18241 179 124 96
2.62161 -2.45824 6.1136 154 144 94
2.52454 -2.39837 6.08498 199 151 126
2.40677 -2.34978 6.21231 156 131 92
2.58252 -2.30784 6.17054 118 89 55
2.41689 -2.25517 6.15636 133 80 49
2.35525 -2.23077 6.14314 118 56 26
2.23281 -2.2174 6.3987 131 116 84
2.10288 -2.26437 6.87561 144 130 97
1.86209 -1.73367 6.0083 122 42 29
2.2706 -1.5896 5.66941 132 100 84
1.72146 -1.679 5.97414 123 84 64
2.35971 -1.59791 5.66421 182 156 144
1.88044 -1.64129 5.87061 104 32 13
-0.387847 -1.95975 7.26229 126 117 72
1.8292 -1.55875 5.92057 134 100 86
2.46715 -1.49626 5.72336 178 161 154
-1.97574 -1.72206 6.97952 134 126 82
-0.940885 -1.69882 6.9997 110 97 62
2.45122 -1.3736 5.76499 215 199 194
1.65043 -1.54831 6.47955 98 73 35
-2.38023 -1.51261 6.45135 149 140 92
-2.39514 -1.48173 6.44828 145 137 91
2.03069 -1.27254 5.93167 151 122 109
-1.68716 -1.38291 6.58196 158 144 96
2.05521 -1.43728 6.9552 110 70 34
-0.924188 -1.42915 6.91627 121 98 60
2.59575 -1.28401 6.46757 108 80 61
1.99844 -1.39096 7.01789 165 145 97
-0.880259 -1.39389 7.06002 108 78 44
1.98763 -1.24807 6.93073 151 98 70
2.29465 -1.23758 6.86667 132 118 84
-1.70765 -1.19122 6.58641 134 102 69
-0.426578 -1.13515 6.92629 103 56 38
1.83179 -1.06893 6.66673 124 70 40
2.10451 -1.11336 6.97594 90 58 27
-1.01198 -1.20478 7.50986 137 116 73
-1.06121 -1.15414 7.44208 120 92 53
2.60387 -0.923012 6.38425 117 74 46
-1.38794 -1.03724 7.34702 127 112 74
1.95845 -0.921228 6.83736 65 52 42
2.382 -0.908768 6.76937 172 141 130
-1.49163 -0.939086 7.0479 114 71 48
2.75272 -0.833659 6.3846 150 83 51
-2.68651 -0.675349 5.09071 118 112 106
-2.62507 -0.652034 5.08199 96 96 122
-0.981482 -0.848678 6.57196 140 96 66
-2.69123 -0.648115 5.09477 136 127 118
-1.47047 -0.897542 7.14231 117 76 46
-0.714109 -0.829369 6.66368 154 106 83
1.7315 -0.852888 6.97701 114 82 50
2.97125 -0.778477 6.44246 118 106 68
2.40434 -0.766238 6.49031 93 84 83
-1.01047 -0.752344 6.32016 134 92 68
-1.21928 -0.71177 6.21796 128 90 58
2.1064 -0.763741 6.98316 142 142 112
-0.877806 -0.7091 6.4459 84 43 22
2.91174 -0.695524 6.47371 71 46 22
-0.281295 -0.768919 7.07425 140 116 100
-2.12521 -0.716315 6.60651 80 36 28
-2.5444 -0.553002 5.19715 115 101 98
2.71623 -0.664574 6.50774 157 102 82
-2.65744 -0.534585 5.18959 114 105 104
-1.61155 -0.652922 6.49779 95 54 30
2.29468 -0.6311 6.49559 92 66 52
-1.33881 -0.592681 6.15549 178 120 86
-0.277123 -0.708246 7.18125 144 126 100
2.15758 -0.663787 7.11842 106 94 74
-0.769294 -0.614208 6.61316 83 30 12
-1.67104 -0.588749 6.33896 126 84 60
-2.18339 -0.57744 6.67662 95 57 44
-0.893584 -0.527045 6.39801 150 99 84
-1.00299 -0.51734 6.34458 88 34 16
2.44588 -0.496411 6.40799 66 38 36
-0.766086 -0.546094 6.67947 84 34 17
-1.18598 -0.470824 6.26293 77 30 14
2.28657 -0.550183 7.62372 82 78 44
-1.01174 -0.462827 6.36501 94 40 24
-0.942126 -0.469285 6.3916 152 96 79
1.78538 -0.54071 7.69927 162 148 124
2.41196 -0.425199 6.49053 120 86 64
1.79124 -0.453914 7.01805 99 72 52
-2.6638 -0.343211 5.13177 170 48 50
-2.23436 -0.44399 6.71753 138 108 84
-2.16385 -0.437908 6.79935 114 86 67
-2.78671 -0.309711 5.17627 150 70 56
-1.25658 -0.362318 6.25642 154 104 88
-2.09018 -0.392614 6.79764 155 114 92
-2.70697 -0.286237 5.10126 146 54 50
-0.711636 -0.387298 7.01864 178 129 107
2.08715 -0.335297 7.29119 88 62 39
-2.68089 -0.24782 5.09243 142 34 34
-1.83142 -0.331648 6.60735 146 99 78
-1.5313 -0.288573 6.49878 104 57 36
-1.99706 -0.265851 5.96464 169 130 106
-2.62231 -0.215724 5.0949 109 20 28
-2.44701 -0.223766 5.15606 120 39 45
-2.51091 -0.215981 5.16137 81 12 28
-2.70362 -0.203348 5.13637 150 49 48
-2.4246 -0.210604 5.23312 115 35 34
1.61669 -0.221778 7.23272 131 100 72
-2.38381 -0.186859 5.46384 137 90 68
2.14213 -0.200089 6.72261 118 98 83
2.09335 -0.15949 6.90826 106 82 69
2.27796 -0.135778 6.828 105 72 54
-2.50253 -0.115534 5.15495 104 16 24
2.54807 -0.102565 6.67292 124 106 90
-2.05572 -0.103472 5.73527 148 50 34
-2.55155 -0.084567 5.10688 111 15 26
2.8083 -0.0636905 6.78533 121 95 74
2.95296 0.000380045 6.78853 65 39 18
3.15139 0.00582277 6.8067 137 121 96
-2.90858 -0.0225779 5.40905 140 80 61
1.60253 0.0385377 7.55051 102 87 63
-2.9103 0.0381668 5.40551 159 117 70
-1.46771 0.0837114 6.82918 158 116 102
0.0794712 0.110283 5.97005 109 28 24
1.68259 0.154014 7.18784 98 39 28
-2.74961 0.105674 5.24218 139 37 12
-1.09458 0.190158 7.23904 110 58 42
-2.36725 0.15286 5.54113 116 25 28
-0.0961375 0.218875 7.32765 124 78 50
-0.154813 0.227647 7.32789 119 74 45
-1.22614 0.271347 7.13133 90 42 28
-0.987353 0.301533 7.23895 137 82 56
-1.40104 0.280352 6.81599 116 67 42
2.14283 0.32808 7.24944 198 174 168
-1.79145 0.291953 6.87825 125 73 56
-1.24291 0.378702 7.02213 99 56 40
0.489249 0.342394 5.87452 106 17 11
-0.71733 0.457343 7.07053 126 75 50
3.1191 0.556909 7.16218 141 114 98
-0.212068 0.488045 6.21812 94 68 56
-2.45417 0.441554 5.61497 99 43 46
-2.09536 0.54364 6.8738 171 120 94
2.94952 0.613227 7.03413 136 109 94
-1.46151 0.597904 6.90575 126 86 72
0.075273 0.520536 5.94398 144 42 36
0.650405 0.53315 5.96249 136 29 31
-2.52579 0.495989 5.58873 96 46 52
-2.6623 0.497379 5.46229 96 44 46
-2.91064 0.543676 5.70868 162 110 96
0.11401 0.633168 5.96716 136 52 47
-2.3738 0.627251 5.9618 156 122 88
0.478352 0.673435 6.04574 137 54 50
-2.35595 0.678827 5.98986 132 89 76
-2.38021 0.771765 6.04977 125 62 52
-0.0131257 0.893404 6.40213 125 92 82
-2.54103 0.836653 6.02473 110 21 16
-0.000112456 0.931763 6.41172 132 100 92
-2.4151 0.857871 6.06469 126 31 10
0.0218068 0.959504 6.3311 132 102 94
0.0616782 0.983331 6.3214 120 90 83
-2.55213 0.923699 5.91471 90 26 24
0.173219 1.01758 6.3103 117 88 84
0.193453 1.003 6.22289 132 102 99
1.65548 -1.85669 6.33112 119 93 68
1.63993 -1.61342 6.39101 120 92 72
-2.43219 -1.15999 6.55424 128 118 80
2.5793 -2.27821 6.21294 108 68 44
1.7141 -2.16157 6.65043 137 108 80
1.78642 -2.14099 6.60764 164 148 134
1.68813 -1.95745 6.60878 88 54 26
1.80933 -1.7873 6.09991 104 64 30
2.0334 -1.6673 5.74388 124 55 35
1.59991 -1.78006 6.51367 124 105 75
1.74849 -1.64551 6.08794 153 126 114
1.65442 -1.75044 6.47472 108 94 74
-0.682464 -1.76296 6.76276 120 85 68
2.67953 -1.34888 5.79454 126 37 32
-0.89684 -1.58314 6.82276 88 50 32
-0.485304 -1.57223 6.79351 102 64 54
-0.960792 -1.60772 7.0583 90 80 44
1.90231 -1.31472 6.06429 124 90 66
1.85975 -1.32862 6.15445 138 116 82
-0.797765 -1.45662 6.74499 98 28 16
-2.27632 -1.32707 6.31796 84 44 24
-1.72806 -1.26201 6.41125 101 38 22
-0.795072 -1.34145 7.07184 124 83 57
-2.05766 -1.16703 6.30928 45 26 20
-2.26701 -1.15733 6.35846 68 33 19
-2.27024 -1.08038 6.40937 84 51 38
2.25243 -0.97796 6.35379 88 20 10
-1.47758 -1.10117 7.1578 130 114 78
2.31221 -0.982058 6.63662 135 108 95
-0.0796419 -0.978229 7.05408 111 98 64
1.75161 -0.861043 6.75088 104 74 58
-0.43259 -0.850914 6.95235 96 53 42
-2.10027 -0.803615 6.61995 47 11 5
-1.14918 -0.683902 6.1861 124 88 64
-1.92652 -0.605539 6.403 153 108 88
2.18166 -0.658011 6.89156 120 105 86
2.25694 -0.609802 6.98282 76 58 40
1.87516 -0.471317 7.0007 78 53 34
2.40327 -0.505753 7.73201 91 79 54
-1.15117 -0.382676 6.58045 84 42 22
1.60413 -0.273515 7.34282 122 90 60
0.115048 -0.0624808 7.72217 125 106 80
-2.80045 -0.0629095 5.36229 162 80 71
1.75097 0.0750258 6.91975 165 128 115
-2.80985 0.0284782 5.27074 125 41 22
1.63027 0.134547 7.7453 109 94 69
-0.156659 0.132154 7.35146 150 101 82
-2.95162 0.0864559 5.26607 162 118 62
2.0328 0.159674 6.74049 158 126 115
-2.52919 0.148436 5.36431 102 56 58
-3.05687 0.133319 5.16134 138 96 65
-0.210846 0.264175 7.3262 98 58 34
2.50077 0.275573 6.61354 176 150 142
-2.38724 0.252882 5.55523 81 62 68
0.464023 0.334733 5.86377 101 19 9
-2.59296 0.333481 5.42157 82 64 66
-2.4374 0.337163 5.54732 83 69 68
-3.00294 0.319885 5.17152 134 86 50
1.99361 0.544666 7.02887 196 172 164
-2.37881 0.425538 5.68184 94 52 54
0.320587 0.519512 5.93364 125 22 22
0.326304 0.565075 5.96605 132 24 24
-0.0117098 0.864461 6.3981 116 82 75
-2.87577 0.922645 5.96079 144 85 70
-2.74511 0.984286 5.88306 152 49 19
2.576 -2.50232 6.07141 156 148 96
1.80311 -2.36712 6.85194 110 96 50
2.9351 -2.13085 6.42919 52 48 22
2.81832 -2.01302 6.14182 82 70 42
1.61307 -2.13405 6.60197 146 134 86
1.62489 -2.11066 6.64308 138 124 75
1.91588 -1.90265 6.12947 123 80 58
3.04222 -1.85208 6.13749 131 107 79
2.5365 -1.60286 5.68002 148 114 100
-0.610075 -2.00832 7.19494 134 127 81
-0.671756 -2.02867 7.28228 154 147 102
-0.587477 -1.97513 7.06042 141 135 94
-0.823769 -1.81382 6.76292 143 132 89
2.80348 -1.5258 5.71177 148 112 96
-2.13505 -1.66464 6.52418 136 124 88
2.7957 -1.454 5.74252 138 111 98
-1.97948 -1.68354 6.62774 134 126 79
-0.672871 -1.68619 6.73798 137 88 70
-0.284547 -1.70697 6.83271 100 92 50
1.74511 -1.71568 6.94213 118 106 62
-2.36213 -1.55472 6.48345 150 142 98
-0.223524 -1.68905 7.22361 132 127 82
-0.225899 -1.61883 7.07479 96 92 49
-0.219097 -1.57297 7.07637 152 148 101
2.86342 -1.28171 5.87753 133 115 100
-1.997 -1.36685 6.32162 104 57 43
-1.68237 -1.39051 6.4412 154 135 88
3.09342 -1.31105 6.11759 114 94 54
2.4729 -1.20018 5.82384 126 84 58
-0.259513 -1.41354 7.01859 120 102 69
2.03261 -0.763423 6.99118 52 38 26
-1.67117 -0.746013 6.66611 92 48 26
2.07981 -0.579401 7.05781 105 92 62
2.45352 -0.605726 7.72895 130 110 88
1.84913 -0.568122 7.78924 129 114 87
1.65771 -0.436455 7.09451 43 24 1
1.71775 -0.433941 7.01073 91 72 50
-2.38451 -0.320259 5.20379 113 20 23
-1.94596 -0.394801 6.61832 130 80 58
1.74679 -0.398248 7.08169 96 76 52
2.25923 -0.293097 6.55421 156 124 104
-2.56114 -0.24559 5.07281 108 11 22
3.10607 -0.199281 7.06621 95 69 52
3.12054 -0.0837168 7.09147 75 52 38
3.07805 -0.062084 6.87366 97 63 30
2.97307 -0.0454501 6.73176 38 12 0
-2.41432 0.164212 7.47291 148 98 69
-1.22845 0.220271 7.14934 115 68 54
-2.66226 0.182714 5.31678 115 6 8
1.7223 0.29153 6.92626 94 48 46
-2.72135 0.262631 5.27866 130 30 15
-2.94831 0.275944 5.35961 143 96 43
-2.87536 0.321989 5.51264 136 74 40
-0.267291 0.393986 6.44423 148 120 104
0.508448 0.377475 5.80111 142 16 18
-1.49494 0.472646 6.87772 80 32 14
0.733647 0.408924 5.9531 134 100 90
0.724005 0.485278 5.99092 149 88 80
-0.244228 0.542076 6.36733 125 104 94
-0.0150829 0.667992 6.40455 158 96 80
-2.47795 0.584551 5.77002 136 57 23
0.600596 0.7433 6.11297 98 46 42
0.38951 0.815257 6.14135 154 32 30
0.415899 0.873883 6.41535 144 43 39
2.06364 2.7219 7.72202 181 164 156
2.3773 -2.44568 6.16262 148 135 82
2.41033 -1.74389 5.82515 90 56 28
2.56358 -1.53355 5.57761 141 106 88
1.78853 -1.57444 5.90542 134 98 78
-2.06724 -1.65254 6.44487 138 131 88
-0.780131 -1.2985 7.00126 69 24 6
-1.71597 -1.25275 7.01909 143 130 84
1.92942 -1.1635 7.01983 101 60 26
2.64338 -1.01339 6.39531 76 50 38
-2.51422 -0.705668 5.15176 138 128 114
2.58742 -0.418047 6.68468 88 45 24
-0.915808 -0.405854 6.42791 118 68 47
2.47426 -0.395859 6.53464 124 82 56
-1.74452 -0.303917 6.48715 138 89 66
-2.63173 -0.125449 5.09344 96 18 28
0.153162 0.0425654 7.7732 113 68 40
2.74594 0.20047 6.63913 146 112 97
3.10494 0.265141 6.88418 146 106 80
-0.731863 0.393295 6.97146 180 128 100
-2.83354 0.299691 5.47412 130 42 24
-2.87876 0.325002 5.30163 166 135 104
-1.4256 0.596798 6.85619 132 92 78
0.218803 0.610045 5.93453 48 25 16
-2.7936 0.817748 5.77644 152 91 68
-2.61106 0.856826 5.91004 115 56 46
0.327142 0.984516 6.30825 124 98 100
-2.67614 0.98127 5.84145 131 24 7
2.49716 -2.59415 6.27807 150 130 76
2.05391 -1.67382 5.73068 130 63 38
2.0329 -1.62055 5.66775 130 83 54
2.29309 -1.43378 5.65665 170 146 136
2.87267 -1.45229 5.79415 120 100 86
2.25723 -1.42533 5.75298 106 78 68
2.1221 -0.976652 7.02795 73 73 40
-2.50468 -0.644086 5.16191 116 106 92
-0.160502 -0.868204 6.98953 106 88 55
0.0562145 0.0200015 5.93767 156 103 81
-2.71611 0.205496 5.25986 118 36 17
-2.37538 0.722461 6.02257 108 27 24
-2.44273 0.122701 5.40583 82 59 56
-1.8261 -1.55189 6.70262 80 59 25
2.13191 -1.24734 6.00128 142 102 83
1.17194 -1.95371 10.0985 138 136 88
-0.10447 -0.936116 6.98654 144 133 100
1.89938 -0.775628 6.89756 94 58 40
-2.68453 -0.467216 5.07349 154 102 82
-2.78361 -0.379145 5.12865 163 130 110
-1.49929 -0.313039 6.5821 127 80 66
3.22119 -0.0280743 6.92881 144 127 102
2.03112 0.413037 6.44991 168 111 108
0.506571 0.398968 5.86254 114 18 14
-2.43446 -1.38668 6.46822 132 120 78
2.39271 -2.47067 6.18343 150 137 88
1.6771 -2.11949 6.56401 147 122 94
1.8014 -1.97717 6.56197 112 84 65
2.43225 -1.69783 5.63891 105 78 56
2.05125 -1.59648 5.71045 140 96 78
-0.642591 -1.85491 6.83122 58 35 18
1.68734 -1.6731 6.15148 156 134 118
2.28862 -1.54391 5.63142 115 92 82
1.78948 -1.58072 5.94316 132 100 84
-0.669575 -1.7506 6.73813 98 63 49
1.66554 -1.6793 6.73813 118 108 64
-2.10296 -1.52885 6.28933 74 45 23
-0.530733 -1.62981 6.73749 80 46 34
2.2901 -1.35608 5.73549 160 140 134
-1.98614 -1.36435 6.29011 94 50 34
-0.255937 -1.42631 7.13061 128 112 82
2.03512 -1.23479 6.04505 76 48 22
1.89916 -1.23729 6.89782 143 118 78
2.26246 -1.20821 6.83485 80 71 36
2.65995 -1.11152 6.70276 122 79 69
2.42711 -1.00385 6.28517 132 60 42
1.75386 -1.04498 6.68776 126 86 61
2.31028 -0.962975 6.30581 173 79 60
-1.24013 -1.07196 7.5603 120 100 62
-1.17328 -0.79397 6.27537 103 66 38
2.77398 -0.7956 6.41701 144 78 51
-0.163229 -0.827866 7.01551 98 82 60
-2.38505 -0.638701 6.66085 132 112 86
2.13647 -0.598279 6.91583 84 66 42
1.85037 -0.578821 6.90046 138 111 88
2.81007 -0.537814 6.55071 84 60 40
-2.06653 -0.508366 6.72973 92 52 42
1.6822 -0.502056 7.14651 78 57 37
-0.288812 -0.4935 7.31055 158 122 97
1.86772 -0.487472 6.95293 98 72 47
-0.953273 -0.403855 6.51492 122 70 52
-0.797141 -0.3928 7.0515 158 111 93
2.205 -0.390301 6.54293 163 109 79
1.6509 -0.40373 7.22403 76 51 23
2.06038 -0.242329 6.68238 66 50 44
-1.29401 0.20531 6.97624 130 83 67
2.37684 0.211923 6.63867 130 90 70
2.50685 0.265143 6.60956 170 146 137
-2.38911 0.248838 5.55506 84 70 72
-0.873168 0.354913 7.34747 137 82 50
-2.29761 0.350055 5.62449 112 26 27
-2.56733 0.351689 5.49311 118 107 108
-2.2187 0.523184 6.88323 146 98 73
-2.36931 0.42091 5.66151 82 55 58
-1.7067 0.50479 6.83502 88 46 26
-0.265137 0.4938 6.35682 144 123 111
-0.0143952 0.476072 6.11231 146 85 80
0.315676 0.495734 5.97367 100 22 19
-0.239608 0.554332 6.36119 126 103 94
0.328441 0.539158 5.96941 122 26 26
-0.0129611 0.838567 6.37018 128 84 72
0.229241 0.843822 6.22308 125 40 40
-2.45617 -1.39443 6.51242 142 134 94
-2.45676 -1.3603 6.49994 142 132 88
1.75212 -0.736657 6.91192 119 82 58
2.13569 -0.691893 6.87457 145 131 106
2.66206 -2.10593 6.11354 92 79 64
1.95492 -2.14411 6.77388 139 120 104
2.08158 -1.65387 5.65464 112 18 10
1.93362 -1.66251 5.81544 112 27 15
2.58634 -1.54812 5.6584 146 110 94
-2.03147 -1.71031 6.92728 132 122 84
2.30431 -1.43989 5.70532 122 102 95
-1.79646 -1.49289 6.72448 116 91 52
-1.69409 -1.38882 6.6009 151 136 92
-0.937837 -1.44944 6.98302 154 138 95
-1.81401 -1.31639 6.62363 114 56 40
-0.190061 -1.33332 7.01737 98 90 48
-0.662093 -1.24425 6.92766 152 98 72
2.96888 -1.21366 6.90271 85 54 38
2.31281 -1.71304 10.2541 142 140 92
1.47254 -1.68196 10.1702 117 117 74
-1.10666 -0.982922 7.4918 86 38 20
-0.175931 -0.906033 6.98457 124 100 80
2.72759 -0.721573 6.41207 165 116 88
2.07792 -0.764693 7.05332 114 110 89
2.12375 -0.436486 7.29317 88 73 43
-2.40022 -0.312123 5.25222 136 74 72
2.29963 -0.23613 6.58349 122 97 78
3.07671 -0.214187 6.89984 91 60 44
-2.00138 -0.033755 5.84868 160 104 87
0.202209 0.024457 7.71979 96 72 38
2.26047 0.00882738 6.42308 154 116 100
-2.41445 0.145297 5.46961 118 110 112
-1.24283 0.401008 7.07274 83 43 32
-1.51011 0.487157 6.88284 98 50 34
-2.3164 0.512451 6.97513 106 75 50
-1.29323 0.577951 6.96329 132 100 94
0.0123411 0.940444 6.29515 134 102 96
2.5652 -2.6312 6.33469 162 146 98
2.59641 -2.62629 6.32797 158 144 92
2.44183 -2.53938 6.14642 156 139 91
2.37564 -2.40707 6.1659 148 142 91
3.33097 -2.04181 6.46094 121 94 66
3.38715 -2.0413 6.45562 140 126 82
2.98272 -1.57672 5.75665 138 107 86
-2.17114 -1.67514 6.57047 148 138 96
2.27078 -1.43237 5.77746 108 82 73
2.94392 -1.43719 5.85783 136 116 105
3.21909 -1.42665 6.17327 79 50 30
-2.40295 -1.46323 6.44343 146 137 94
2.83703 -1.33831 5.87673 106 102 90
2.4903 -1.22848 6.07879 153 113 96
2.02445 -1.30356 6.84353 116 54 28
2.93387 -1.21941 6.89699 56 23 12
-1.57716 -1.20218 7.27008 139 126 80
1.93813 -1.17785 7.10374 100 60 28
2.64791 -1.00941 6.4253 98 64 50
2.1656 -0.922988 7.08894 116 113 74
2.60707 -0.79941 6.36875 98 45 24
2.71871 -0.81163 6.46404 162 92 64
-1.34106 -0.7752 6.28097 102 62 34
-2.09744 -0.717795 6.62624 62 20 13
3.05239 -0.690468 6.88086 156 114 86
2.45667 -0.402899 6.45716 129 87 63
2.14007 -0.343972 6.73037 168 107 80
-2.44553 -0.275341 5.14361 124 36 38
2.31891 -0.0698939 6.75011 136 93 70
-2.61191 0.208663 7.40041 124 100 74
-2.59952 0.247455 7.3545 143 119 97
-2.59766 0.282073 7.37088 144 116 98
-0.249013 0.399532 6.32471 120 91 74
0.316191 0.596494 5.98352 128 28 30
-2.56834 0.85692 5.7857 108 40 26
0.237173 1.00626 6.26669 114 84 78
0.114594 1.13237 6.45401 178 150 148
1.77768 -2.33951 6.77088 114 96 58
1.72635 -2.17296 6.62512 116 92 65
3.41201 -1.98294 6.35757 117 101 58
1.57572 -1.9253 6.41238 124 110 66
3.30494 -1.86007 6.2267 151 121 92
2.70336 -1.64147 5.65261 104 80 60
2.76499 -1.59713 5.60925 34 14 2
2.508 -1.57331 5.65877 170 148 138
3.35002 -1.72088 6.27699 124 108 70
3.07875 -1.60593 5.85303 128 108 88
-0.351068 -1.86379 7.14129 138 130 88
3.20764 -1.60049 6.03006 112 104 74
2.98765 -1.51476 5.78051 154 126 114
2.91757 -1.49569 5.74768 108 70 48
-0.246643 -1.60131 6.46458 45 26 8
3.09927 -1.50661 5.94706 93 18 14
3.25219 -1.55473 6.17383 119 92 62
2.43136 -1.42267 5.63966 170 152 147
2.87361 -1.45415 5.79819 120 102 89
-1.89837 -1.54567 6.34685 63 41 24
-0.959027 -1.69331 7.08771 68 53 19
2.34613 -1.40158 5.65538 148 130 123
3.1056 -1.44289 5.95616 138 69 54
-1.84144 -1.57906 6.70547 91 75 37
-0.214912 -1.62094 7.06294 125 120 74
3.08211 -1.40662 6.01512 127 84 74
2.87118 -1.3628 5.85263 160 144 126
-0.201065 -1.56756 7.01443 137 132 87
3.01048 -1.34876 5.99396 110 82 60
3.18239 -1.37134 6.21319 100 79 46
2.01537 -1.41239 6.7533 156 140 102
1.99234 -1.39841 6.92499 146 120 76
3.01823 -1.34279 6.84684 133 102 73
2.6474 -1.22159 6.59908 128 101 88
-0.120373 -1.23414 6.97886 132 124 76
-0.097805 -1.18485 6.89931 86 71 34
-2.05155 -0.979083 6.58263 66 26 18
2.94541 -1.04675 7.04425 106 80 78
2.01808 -1.02577 7.07005 64 24 16
2.72146 -0.904537 6.4272 42 12 4
2.45191 -0.870747 6.30524 78 20 6
2.75329 -0.924438 7.0657 144 102 85
-2.16906 -0.837323 6.76967 46 14 10
-2.32505 -0.641922 4.86922 128 114 101
-0.159762 -0.860422 7.03187 107 90 65
2.43118 -0.779273 6.36894 132 118 120
-2.50775 -0.631923 5.17526 127 112 100
-0.488842 -0.73809 6.98653 71 30 18
-0.880437 -0.652782 6.46346 90 44 22
3.18535 -0.718626 7.06539 143 118 96
-0.907604 -0.60952 6.41886 72 25 13
-0.850296 -0.608681 6.52088 80 30 14
2.8242 -0.661784 7.10627 116 66 50
-0.764457 -0.594543 6.58564 71 22 5
-0.443029 -0.616747 7.00939 124 82 66
3.05589 -0.645649 7.17207 147 106 84
-2.36958 -0.477582 5.29317 156 118 98
2.07199 -0.550742 6.52018 94 66 33
-1.4405 -0.32937 6.44424 128 82 66
2.2398 -0.322618 6.6083 162 127 102
-2.05889 -0.219787 6.17124 151 126 106
1.7471 -0.242285 7.24511 66 36 16
3.19559 -0.220776 7.0975 79 41 12
1.59234 -0.194446 7.19833 109 75 46
-2.42156 -0.097226 5.44061 73 4 2
3.22669 -0.0497329 6.94053 126 111 85
-2.44518 0.046925 7.28291 138 104 76
0.273483 0.00332557 6.01962 127 76 50
2.01627 0.0863 6.8981 210 164 138
2.99845 0.185765 6.95797 216 200 195
0.226984 0.151946 5.91695 78 14 12
0.0511137 0.149624 5.74663 132 35 24
0.295884 0.171367 5.98868 107 20 12
-2.47135 0.30057 7.39734 136 90 62
1.58894 0.270808 7.40532 102 80 58
-0.595964 0.325632 7.04662 144 90 66
2.9445 0.340966 6.73135 130 112 106
0.766592 0.343106 6.13775 134 118 104
2.8593 0.430306 6.73964 158 130 105
2.07936 0.470388 6.75042 160 123 118
0.770037 0.392337 5.76538 94 78 67
0.94802 0.471741 6.32643 138 120 114
2.07796 0.594504 7.25982 202 180 172
0.456436 0.482726 6.02334 46 8 4
2.11239 0.595547 7.09933 204 180 175
2.27108 0.569755 6.70246 158 132 127
0.489832 0.521127 5.98166 236 216 211
-2.64789 0.570955 5.62579 109 19 20
-2.52399 0.657088 6.25914 142 108 74
0.720976 0.68322 6.01855 140 81 75
2.15711 0.953055 7.64525 184 164 158
-2.48228 0.786578 6.25608 130 76 60
-2.35855 0.829824 5.9536 114 30 14
0.0492314 1.04678 6.58987 144 116 111
-2.89442 1.01807 6.0583 145 32 26
-2.84712 1.0339 5.98907 150 46 38
-0.225685 -1.66292 7.08183 124 118 74
-1.1792 -0.38971 6.34238 88 42 24
2.97577 -1.84169 6.04315 137 112 92
2.69262 -1.6085 5.64223 125 84 64
-0.796275 -1.91584 6.97931 146 138 97
3.19157 -1.46049 6.05185 90 67 26
-0.93393 -1.62373 6.98227 124 106 72
2.92896 -1.34829 5.87689 102 96 84
-0.359724 -1.4714 6.87054 48 25 14
-0.278083 -1.1094 6.76439 106 58 42
-1.5188 -1.14363 7.30054 124 106 62
2.10358 -1.08339 7.02279 100 64 40
-1.46709 -0.754199 6.50903 94 51 24
1.97975 -0.702506 6.91295 64 45 26
-0.456768 -0.667653 7.12223 75 34 23
1.97876 -0.291147 7.21648 92 56 33
-0.706951 -0.125372 7.07057 170 117 93
-2.31217 0.0349162 5.63388 99 25 5
2.08238 0.296085 6.97867 202 182 176
-2.28196 0.374673 7.02318 116 72 46
-1.97041 0.450917 6.77143 124 72 46
3.18988 0.498635 7.22529 142 125 110
0.731355 0.459434 6.07443 122 82 78
0.730161 0.49628 6.13516 96 33 28
2.91177 0.633364 6.9706 130 100 88
2.60129 -2.49664 6.10354 156 146 96
2.69967 -2.56946 6.39682 146 132 84
2.61677 -2.39131 6.1144 134 122 70
2.60678 -2.3546 6.10311 152 140 90
3.17961 -2.28675 6.90651 120 104 67
3.19836 -2.22524 6.76211 129 108 78
1.60498 -2.10816 6.56037 127 106 64
-1.79326 -1.4727 6.47832 58 36 20
-1.78138 -1.11226 6.55201 54 20 6
-1.84698 -0.980371 6.06423 28 8 8
4.60114 -1.42049 9.643 140 139 91
-0.812971 -0.229088 6.4864 162 112 88
3.06884 -0.250771 6.9473 56 33 22
3.16177 -0.067419 7.11217 42 14 2
3.10922 -0.0226939 7.10708 86 58 29
-0.903535 -0.0115676 5.86848 114 66 50
3.23985 0.208177 7.13519 138 123 108
-1.26972 0.369401 7.08891 104 58 36
0.0220871 0.265201 5.78333 148 93 78
-1.23492 0.430376 6.2795 103 56 40
-2.195 0.703232 5.11914 128 77 59
2.40647 -2.5064 6.14419 164 152 102
2.66769 -2.52555 6.20881 154 134 91
2.38264 -2.44122 6.19111 158 147 102
2.6157 -2.42643 6.10129 148 135 90
2.48946 -2.40355 6.20771 140 87 56
2.6257 -2.36945 6.14694 146 127 88
2.35697 -2.30067 6.30552 136 120 83
1.66656 -2.04558 6.53081 148 119 96
-0.299596 -1.94613 7.45353 138 130 90
1.67478 -1.67827 6.57753 125 110 88
-2.34602 -1.55285 6.45899 142 134 92
1.38132 -2.19529 9.75678 136 136 90
-0.488838 -1.42119 6.87871 33 8 0
2.11189 -1.20119 5.77112 130 84 63
-0.707693 -1.30423 6.92636 76 21 8
2.27926 -1.74062 10.2749 142 141 96
-0.762441 -1.23443 6.97934 167 115 85
-0.104931 -1.1897 6.95608 96 88 50
-1.77485 -1.08572 6.66874 92 52 28
2.29425 -1.04488 6.35729 124 70 58
-1.05583 -1.0901 7.50521 123 79 52
-2.50794 -0.662402 5.18186 130 119 111
-1.12266 -0.713984 6.25219 134 94 68
-0.670516 -0.661931 6.6213 151 111 94
-1.4214 -0.660163 6.29872 92 46 24
1.77208 -0.618034 6.9348 99 66 36
-1.80431 -0.595453 6.47516 146 100 82
-0.629499 -0.56593 6.98251 134 95 74
-2.03343 -0.549433 6.70172 70 26 12
-2.5449 -0.493369 5.17978 102 18 22
-1.99833 -0.393399 6.62149 140 87 68
-0.953229 -0.210675 7.12781 165 117 96
2.40286 -0.163104 6.66173 60 46 38
0.0611968 0.173474 7.41224 106 70 42
-2.71771 0.000168431 5.38815 94 6 6
0.0535326 0.314134 7.35126 139 104 89
-2.43835 0.10178 5.44789 112 36 37
-3.15106 0.125951 5.1104 166 135 121
-2.88686 0.169953 5.22808 176 122 56
-2.71428 0.203118 5.25403 106 14 4
0.727872 0.446229 5.94955 135 69 58
-3.22507 0.199899 5.07711 164 122 110
-2.56581 0.275105 5.34463 98 90 95
0.511847 0.457195 5.90735 104 44 34
-3.19785 0.248522 5.00015 153 100 90
-3.15821 0.261407 5.06744 230 158 162
-2.89154 0.322507 5.31102 154 118 82
0.0789455 0.600524 5.95627 139 44 42
-3.18729 0.337023 5.05624 164 108 100
-2.60312 0.544301 5.54113 104 37 38
-2.58311 0.750363 5.95228 96 40 34
-2.70857 0.66467 5.51256 162 82 40
-2.80719 0.801664 5.81894 157 102 72
-2.66686 0.815471 5.71337 152 56 29
2.43473 -0.192295 6.66716 29 19 14
-1.86578 -4.27049 9.22175 144 138 87
2.6237 -2.61899 6.31193 162 143 96
2.63537 -2.40704 6.14212 132 116 73
1.66309 -1.87008 6.04513 140 118 96
-0.844136 -1.69387 6.88816 78 32 12
-0.943824 -1.51135 6.97176 102 86 56
1.90524 -1.38587 6.11389 126 92 73
1.94326 -1.33296 6.17917 129 102 72
2.98152 -1.35045 6.80995 159 124 101
2.5386 -0.993999 6.36938 141 88 63
2.83939 -0.968715 6.48842 140 124 84
2.77827 -0.913503 6.5196 141 98 62
-2.64106 -0.486428 5.19114 108 17 26
-2.76128 -0.472159 5.20292 160 125 104
-2.03624 -0.290676 5.94164 174 137 114
-2.54066 -0.244926 5.10182 110 10 22
-2.80276 -0.243448 5.24458 148 88 76
-2.73579 -0.235701 5.18831 124 54 50
-2.81707 -0.112687 5.32943 162 118 101
2.62509 0.139321 6.52571 165 130 116
2.28661 0.15822 6.57388 108 60 36
2.21975 0.355855 6.64554 141 125 118
-0.118832 0.357127 7.2675 108 69 47
-0.831537 0.345345 7.23958 148 92 68
-1.23334 0.347479 7.00521 102 58 36
-3.13871 0.124475 5.13631 163 126 106
-1.31991 0.467534 6.86322 81 40 27
0.553628 0.640097 5.93991 142 125 122
-3.16605 0.391865 5.15613 166 121 112
-3.10348 0.395583 5.14853 162 124 108
-2.51334 0.948356 6.00343 107 7 12
-0.556855 -4.36027 9.02456 138 132 81
-2.25355 -1.46105 6.40786 88 52 28
-2.10402 -0.741392 6.65162 64 24 18
-1.40234 -0.713639 6.2575 102 58 36
-2.46201 -0.252795 5.25841 164 130 132
3.09788 -0.0627907 7.01869 64 40 22
-2.16762 0.15391 6.42925 143 104 80
3.12495 0.508182 7.10475 146 123 108
-1.58982 0.348989 6.83662 102 52 31
-2.48428 1.10224 6.04004 96 7 9
-0.739294 -0.773933 6.67345 138 94 70
-0.0941752 -1.15071 6.97422 115 105 62
2.09729 -0.448468 6.44063 151 81 49
-1.59804 -0.426574 6.25558 118 66 42
2.5497 -2.55404 6.14489 154 137 90
-0.240019 -1.69782 7.05653 128 122 79
-2.6678 -0.761021 5.25882 153 145 125
-2.67601 -0.73499 5.15734 124 122 111
-1.08892 -0.851138 6.57231 117 80 46
0.150388 0.0167696 6.34476 158 110 92
-2.99288 0.232893 5.09911 132 54 26
2.33447 -2.27205 6.36308 146 130 95
-1.96844 -1.39539 6.29176 54 26 14
2.43004 -1.50203 10.0664 144 142 94
-0.787496 -1.30671 7.16053 82 36 17
-2.44959 -1.22416 6.55537 116 106 70
2.42181 -1.16009 10.1151 104 105 64
2.83806 -0.875999 6.89429 106 54 38
-1.69233 -0.789622 6.59435 118 77 58
2.17887 -0.604048 6.61043 150 88 58
-2.4967 -0.631246 5.14294 126 114 106
-2.61131 -0.119892 5.06568 114 19 34
-1.92185 0.267391 6.91406 148 100 84
-2.2798 0.0745996 5.65045 144 88 58
-3.24135 0.225734 5.09433 162 128 115
-3.18771 0.371599 5.10129 168 140 128
1.96858 -2.2003 6.46729 110 90 56
2.09093 -1.08263 6.94912 102 74 46
-1.72502 0.154411 6.91359 133 84 66
2.14154 0.80216 7.40555 170 148 142
3.75753 -2.92786 9.25386 126 108 75
2.93876 -1.87769 6.0665 98 72 48
2.08786 -0.997191 6.9644 64 56 35
2.2507 -0.478107 6.43927 125 80 60
-2.61926 0.95049 5.87917 117 28 8
-2.6429 -0.334763 5.14079 176 52 55
-2.05406 0.164905 6.84754 190 144 122
2.03166 0.746628 7.29237 186 162 156
1.94676 -2.13963 6.71033 140 118 102
-2.12437 -1.02739 6.44003 66 34 24
-2.75113 -0.767265 5.34404 134 126 114
1.83258 -0.676697 7.02137 132 98 76
2.08216 -0.407482 6.41896 160 96 60
-2.61231 -0.237647 5.12654 112 16 30
-1.94806 -0.0464815 5.79713 156 98 78
-2.89724 0.294593 5.30333 154 112 65
0.654318 0.592558 5.98142 138 26 29
-2.47024 0.495539 5.62437 100 42 44
2.62443 -1.62221 5.54406 78 58 40
-2.43925 -1.18108 6.54162 126 114 76
2.18151 -0.382657 7.47575 112 82 54
-0.42652 -0.443937 7.11882 162 124 108
-3.24479 0.172597 5.1461 171 137 124
2.5753 -2.53501 6.11738 158 145 95
-2.33305 -1.58526 6.50382 151 142 96
-0.898635 -1.27026 7.32528 134 110 68
-1.56582 -1.0596 7.01378 124 86 57
2.54648 -0.677599 6.39774 110 60 42
2.09017 -0.549846 6.40331 194 125 89
1.72988 -0.567974 7.21845 150 127 98
-2.30617 -0.497306 6.81035 124 102 80
1.7997 0.249602 6.83549 134 110 107
0.92082 0.526792 6.45132 114 98 90
3.20921 -1.72087 5.98239 104 74 44
3.277 -1.86495 6.61718 126 93 66
2.91901 -1.61177 5.81669 76 44 27
3.29339 -1.70045 6.20073 121 105 74
-0.469875 -1.86325 7.08529 42 23 8
3.0701 -1.54298 5.86841 138 123 108
-0.347142 -1.86057 7.3375 140 133 87
2.58938 -1.34648 5.80473 163 142 136
2.46587 -1.24725 5.78232 138 112 102
2.7539 -1.34667 6.9396 131 86 63
2.98447 -1.30362 6.92718 57 45 34
2.8399 -1.32499 7.20214 84 51 34
2.80458 -1.19406 7.01033 69 39 30
-2.06662 -0.863703 6.59357 93 45 28
-0.452108 -0.934062 7.19925 58 20 10
-2.29382 -0.787548 6.59578 152 96 68
4.64298 -1.05658 10.3025 94 94 52
4.68969 -1.05637 10.2924 92 90 46
-2.85307 -0.369806 5.23726 164 135 112
2.0119 -0.489103 7.38989 102 76 49
3.04694 -0.470477 7.1249 104 88 64
2.82521 -0.414722 6.59024 102 82 63
3.1072 -0.264708 7.02788 34 13 2
2.35698 -0.236864 6.82755 134 104 86
3.21322 -0.229061 7.33088 34 14 8
-2.92813 -0.0227994 5.48944 116 22 13
3.18134 -0.0851838 7.1788 34 7 0
2.71519 -0.0653848 7.0468 195 172 157
3.12725 -0.0328841 7.16338 74 46 16
0.329247 0.0890844 5.84455 109 52 32
1.67044 0.121781 6.93274 146 44 38
3.02971 0.41101 6.94359 102 80 65
3.20087 -1.99975 6.02087 133 118 70
3.07894 -1.71636 5.86739 132 98 72
2.75771 -1.53363 5.98836 186 164 158
-0.461295 -2.00607 8.27634 110 102 59
3.22281 -1.46837 6.13734 96 72 34
1.69204 -1.55077 6.67856 110 90 50
3.06754 -1.30897 6.13729 96 69 38
2.94477 -1.27106 6.30589 139 106 75
2.27137 -1.00604 6.44542 120 79 62
-0.275906 -1.15245 8.57876 114 108 70
1.64625 -0.900449 6.99189 120 107 76
2.22277 -0.896628 7.241 84 68 30
2.6931 -1.05397 9.24749 138 116 94
3.29124 -0.864181 7.47816 117 96 62
2.98352 -0.310314 6.3097 146 128 100
4.12508 0.62585 11.4269 166 114 96
-2.45258 -0.289036 5.28469 154 138 140
1.6794 -1.68722 5.85152 138 103 81
0.261492 -2.05244 10.9082 134 132 83
0.145025 -0.0372668 8.1674 106 88 58
2.00051 0.0890526 6.62141 220 172 148
2.99603 0.487356 6.92166 150 124 111
-2.38692 -1.08954 6.54078 122 107 79
-2.52952 -0.703549 5.18878 146 138 122
-2.69467 -0.628498 5.1009 138 130 123
0.731015 0.687781 6.16545 134 86 72
2.90233 -1.32325 6.8997 118 76 60
-2.60916 -0.755212 5.21722 146 134 115
3.12314 -0.316469 7.19891 80 53 32
0.292833 0.868139 6.35544 84 8 8
