ply
format ascii 1.0
element vertex 30
property float x
property float y
property float z
property uchar red
property uchar green
property uchar blue
end_header
-1.53031 -5.88098 1.64578 0 255 0
-0.381366 -0.104393 0.647632 0 255 0
0.493341 0.414333 1.05917 0 255 0
-0.938085 -0.403893 -0.28293 0 255 0
-0.456513 -0.0872851 0.739768 0 255 0
0.368906 0.199563 0.0697207 0 255 0
0.481801 0.410445 1.04903 0 255 0
0.485707 0.40707 1.04092 0 255 0
0.514912 0.422033 1.06674 0 255 0
0.487533 0.411026 1.05666 0 255 0
-0.437255 -0.161963 0.678031 0 255 0
0.575675 0.427834 1.09734 51 53 53
0.521385 0.423155 1.06896 80 69 55
0.493351 0.414342 1.05918 110 81 40
1.27574 0.730241 1.36208 66 54 37
1.51809 0.816271 1.45063 84 70 52
1.40279 0.910592 1.46341 100 74 34
0.504705 0.419659 1.06108 18 14 6
0.59832 0.428879 1.11952 137 150 162
0.55563 0.440871 1.10373 64 49 59
0.576014 0.451015 1.10022 4 4 4
0.576318 0.461186 1.12322 93 96 99
0.61826 0.478531 1.09589 64 54 37
0.628195 0.486557 1.09961 82 58 14
0.51427 0.412084 1.0664 136 141 140
0.512949 0.412393 1.06726 123 122 105
0.793571 0.44984 1.254 140 56 64
0.808777 0.45376 1.25833 126 119 142
0.712888 0.465676 1.16529 26 24 24
1.083 0.580257 1.5187 33 30 32
