ply
format ascii 1.0
element vertex 37
property float x
property float y
property float z
property uchar red
property uchar green
property uchar blue
end_header
-7.47073 -1.62419 5.07611 0 255 0
-7.17463 -2.36897 4.72888 0 255 0
-8.1759 -3.57553 7.24367 0 255 0
-7.28418 -2.16893 4.16171 0 255 0
-7.08213 -1.86992 4.79744 0 255 0
-7.06214 -2.50417 4.43621 0 255 0
-6.81748 -2.6555 4.25771 0 255 0
-7.33542 -2.09497 4.22841 0 255 0
-6.984 -1.89059 4.88828 0 255 0
-5.97247 -1.15727 9.24405 131 71 38
-5.89879 -0.765372 9.03921 117 52 42
-6.09015 -1.38993 9.33511 23 17 27
-6.03306 -1.39545 9.32039 48 45 56
-6.02685 -1.38896 9.31318 122 116 124
-5.90849 -0.780125 9.04284 129 21 18
-5.97349 -1.15482 9.24956 140 74 40
-6.10311 -1.37543 9.36077 113 106 120
-6.1054 -1.37935 9.34 110 103 116
-4.15432 -0.921087 7.55692 98 81 66
-5.8933 -0.768179 9.06244 120 43 38
-5.97028 -1.158 9.24785 124 53 27
-6.09738 -1.22252 9.29931 27 20 34
-5.96785 -1.18263 9.26926 82 4 6
-6.0688 -1.1001 9.36944 164 130 118
-6.08439 -0.727181 9.10718 112 62 56
-6.06384 -1.10683 9.3599 150 88 78
-6.22384 -0.871459 9.37214 179 106 42
-5.96887 -1.15036 9.25206 132 71 30
-6.22735 -0.968219 9.41644 164 75 50
-5.96317 -1.2403 9.24816 42 16 20
-4.33506 -0.955921 7.70967 78 62 48
-5.98336 -1.14489 9.26452 102 25 0
-3.31615 -0.73151 6.89858 172 109 90
-4.35012 -0.895055 7.71062 132 104 98
-2.99111 -0.768088 6.57838 164 131 114
-3.01311 -0.765519 6.6047 49 21 12
-3.31494 -0.746542 6.89621 193 136 104
